<svg version="1.2" xmlns="http://www.w3.org/2000/svg" viewBox="0 0 600 600" width="600" height="600"><defs><clipPath clipPathUnits="userSpaceOnUse" id="cp1"><path d="m300 550c-138.25 0-250-111.75-250-250 0-138.25 111.75-250 250-250 138.25 0 250 111.75 250 250 0 138.25-111.75 250-250 250z"/></clipPath></defs><style>.a{fill:#d9d9d9}.b{fill:#fff}</style><path class="a" d="m300 580c-154.8 0-280-125.2-280-280 0-154.8 125.2-280 280-280 154.8 0 280 125.2 280 280 0 154.8-125.2 280-280 280z"/><path class="b" d="m300 330c-55.3 0-100-44.7-100-100 0-55.3 44.7-100 100-100 55.3 0 100 44.7 100 100 0 55.3-44.7 100-100 100z"/><g clip-path="url(#cp1)"><path class="b" d="m300 740c-105.1 0-190-84.9-190-190 0-105.1 84.9-190 190-190 105.1 0 190 84.9 190 190 0 105.1-84.9 190-190 190z"/></g></svg>